<svg xmlns="http://www.w3.org/2000/svg" xmlns:xlink="http://www.w3.org/1999/xlink" width="25.023" height="35.933" viewBox="0 0 25.023 35.933"><defs><style>.a{fill:#9a9a9a;}.b{clip-path:url(#a);}</style><clipPath id="a"><path class="a" d="M16536.924-6342.876h25.023v-35.933h-25.023Z" transform="translate(-16536.924 6378.809)"/></clipPath></defs><g transform="translate(-1042.949 466.709)"><g transform="translate(326.949 142.879)"><g class="b" transform="translate(716 -609.588)"><g transform="translate(7.15 0)"><path class="a" d="M-58.372-252.968a5.355,5.355,0,0,0,5.353-5.37L-53-270.871a5.368,5.368,0,0,0-5.37-5.37,5.369,5.369,0,0,0-5.37,5.37v12.532a5.372,5.372,0,0,0,5.37,5.37" transform="translate(63.742 276.241)"/></g><g transform="translate(10.73 30.297)"><path class="a" d="M0,0H0V5.633H3.58V.061A12.657,12.657,0,0,1,1.8.139,12.625,12.625,0,0,1,0,0"/></g><g transform="translate(0 18.03)"><path class="a" d="M-67-68.041a8.479,8.479,0,0,1-2.59-6.26h-3.574A12.125,12.125,0,0,0-69.5-65.512l.026-.024-.026-.024Z" transform="translate(73.165 74.301)"/></g><g transform="translate(3.665 18.028)"><path class="a" d="M-193.3,0a9.183,9.183,0,0,1-8.922,8.887,8.947,8.947,0,0,1-6.331-2.658l-.03.03-2.5,2.484.026.022a12.485,12.485,0,0,0,7.038,3.5,12.65,12.65,0,0,0,1.8.139,12.643,12.643,0,0,0,1.779-.078A12.47,12.47,0,0,0-189.723,0Z" transform="translate(211.079)"/></g></g></g></g></svg>